# xmcd CD database file
#
# Track frame offsets:
#	150
#	16073
#	34375
#	50557
#	70757
#	88066
#	100979
#	119288
#	136235
#	151910
#	176395
#	196556
#
# Disc length: 2907 seconds
#
# Revision: 0
# Processed by: cddbd v1.5.2PL0 Copyright (c) Steve Scherf et al.
# Submitted via: CDex 1.51
#
DISCID=930b590c
DTITLE=Gary Shearston - Only Love Survives
DYEAR=2001
DGENRE=Country
TTITLE0=Riverina Drover
TTITLE1=Riverina 1984
TTITLE2=Pretty Bonnie
TTITLE3=Hey There, Songman
TTITLE4=Foreign Strand
TTITLE5=Streets Of Forbes
TTITLE6=Sing On, Brother John
TTITLE7=Forty Days
TTITLE8=The Man Imight Have Been
TTITLE9=Song For Kimmio Ito
TTITLE10=Love, Don't Ever Make A Fool Of Me Again
TTITLE11=Bonnie's Lullaby
EXTD=YEAR: 2001
EXTT0=
EXTT1=
EXTT2=
EXTT3=
EXTT4=
EXTT5=
EXTT6=
EXTT7=
EXTT8=
EXTT9=
EXTT10=
EXTT11=
PLAYORDER=
